Coordinates
version=1
nRows=22
nColumns=24
inDegrees=yes

Units are S.I. units (second, meters, Newtons, ...)
Angles are in degrees.

endheader
time	pelvis_tilt	pelvis_list	pelvis_rotation	pelvis_tx	pelvis_ty	pelvis_tz	hip_flexion_r	hip_adduction_r	hip_rotation_r	knee_angle_r	ankle_angle_r	subtalar_angle_r	mtp_angle_r	hip_flexion_l	hip_adduction_l	hip_rotation_l	knee_angle_l	ankle_angle_l	subtalar_angle_l	mtp_angle_l	lumbar_extension	lumbar_bending	lumbar_rotation
      0.72500000	     -2.89979787	      7.42786235	     13.40888807	      0.10503971	      0.97427307	      0.23222650	     29.74960460	    -11.28456912	     -4.56996169	     -1.60615468	     10.95019553	    -12.94878873	     -3.57821941	    -21.94901273	      7.44414887	     17.40562982	     -5.71164886	      6.80307096	    -10.85160230	     10.12191722	     -1.92189202	     -8.73710224	     -6.27284164
      0.72916667	     -2.90631831	      7.36941253	     13.54659992	      0.11142396	      0.97375262	      0.23224892	     29.67083699	    -11.22724037	     -4.47977347	     -2.01641946	     11.03574025	    -13.04565381	     -3.56415559	    -22.07730313	      7.26852443	     17.43831107	     -6.09892722	      6.53690762	    -10.76134780	     10.13137390	     -1.88096085	     -8.64793200	     -6.30894489
      0.73333333	     -2.89704678	      7.29586158	     13.64815591	      0.11790275	      0.97324328	      0.23233608	     29.57710019	    -11.12899817	     -4.33385431	     -2.44540561	     11.12072203	    -13.13102648	     -3.51072109	    -22.20365820	      7.07842904	     17.33522632	     -6.50860952	      6.28375748	    -10.46767191	     10.19650446	     -1.83114161	     -8.52271614	     -6.47753660
      0.73750000	     -2.89825215	      7.20732061	     13.76921647	      0.12441405	      0.97276006	      0.23241319	     29.49081551	    -11.02252133	     -4.25177231	     -2.89288384	     11.09073814	    -13.25249883	     -3.39514404	    -22.26502594	      6.87449589	     17.15590405	     -7.02320839	      6.11007004	    -10.07617677	     10.37829148	     -1.76419525	     -8.39913901	     -6.61155375
      0.74166667	     -2.89145362	      7.10403925	     13.86970250	      0.13101850	      0.97230277	      0.23252667	     29.39280418	    -10.88493033	     -4.13972144	     -3.34641021	     11.02726995	    -13.40257298	     -3.18575100	    -22.34147046	      6.65602707	     16.98061541	     -7.51051244	      5.85816676	     -9.71550885	     10.75271579	     -1.68981331	     -8.25108467	     -6.68283431
      0.74583333	     -2.89337821	      6.99217187	     13.94787391	      0.13770339	      0.97185968	      0.23264709	     29.31857097	    -10.72977081	     -4.04760078	     -3.83434735	     10.94298618	    -13.46231815	     -3.14062876	    -22.43717877	      6.44404409	     16.91143727	     -7.93300165	      5.45184624	     -9.62408549	     10.83802429	     -1.59352736	     -8.09188243	     -6.72123062
      0.75000000	     -2.89483302	      6.85646163	     14.02196182	      0.14441130	      0.97143099	      0.23283039	     29.23619695	    -10.53933363	     -3.91546668	     -4.30314743	     10.73153563	    -13.66963665	     -2.94008580	    -22.44936409	      6.20377225	     16.61373776	     -8.50656316	      5.21559367	     -9.13592371	     11.25144630	     -1.50155503	     -7.91908220	     -6.83694731
      0.75416667	     -2.90246660	      6.71411331	     14.07394583	      0.15122220	      0.97103065	      0.23299351	     29.17743902	    -10.33822545	     -3.83347286	     -4.80940204	     10.53020181	    -13.70912515	     -2.86677054	    -22.50956050	      5.97198090	     16.48926901	     -8.96095158	      4.73120834	     -9.01224992	     11.40644282	     -1.38030354	     -7.72441305	     -6.85626940
      0.75833333	     -2.91485949	      6.54720989	     14.12073460	      0.15804003	      0.97063001	      0.23322448	     29.12265152	    -10.10147719	     -3.69943654	     -5.30209325	     10.19490082	    -13.98628649	     -2.60377336	    -22.46354281	      5.71245029	     16.09518182	     -9.60284807	      4.46481926	     -8.45769601	     11.98611151	     -1.23807876	     -7.52015831	     -6.91550213
      0.76250000	     -2.90849022	      6.38245654	     14.15172829	      0.16492103	      0.97029669	      0.23343061	     29.07273317	     -9.86706634	     -3.67036292	     -5.84086559	      9.83608855	    -14.05682881	      0.38414668	    -22.47925058	      5.45892312	     15.83382668	    -10.13412955	      3.88874726	     -8.30051684	     18.95166298	     -1.11708219	     -7.30507311	     -6.93638027
      0.76666667	     -2.93358705	      6.19725266	     14.15431417	      0.17184910	      0.96993292	      0.23369038	     29.07032053	     -9.59907059	     -3.56248437	     -6.39487668	      9.46084820	    -14.21118806	      0.36155301	    -22.42853214	      5.20632645	     15.50863018	    -10.73599198	      3.42710770	     -7.97032687	     19.03116877	     -0.93982684	     -7.07321772	     -6.94865571
      0.77083333	     -2.93987982	      6.00652273	     14.14083157	      0.17881365	      0.96964070	      0.23394709	     29.06429126	     -9.32217671	     -3.50142877	     -6.97743199	      9.07257600	    -14.22491289	      0.36141339	    -22.40752759	      4.95423821	     15.24936671	    -11.30209214	      2.83080358	     -7.79026918	     19.08521855	     -0.79167579	     -6.82933557	     -6.96948913
      0.77500000	     -2.98186973	      5.78833553	     14.11981624	      0.18577981	      0.96929579	      0.23427597	     29.11414654	     -9.01414220	     -3.39135412	     -7.58096371	      8.61919978	    -14.44530480	      0.39407838	    -22.25119340	      4.67530413	     14.74610855	    -12.04817440	      2.42250322	     -7.21197389	     19.30484831	     -0.57448795	     -6.57039230	     -6.94778813
      0.77916667	     -3.00821945	      5.56126703	     14.07501402	      0.19278901	      0.96901015	      0.23459937	     29.17018288	     -8.69205607	     -3.31564701	     -8.22612774	      8.18878614	    -14.53666908	      0.45243490	    -22.12414778	      4.39676919	     14.30479082	    -12.75240107	      1.87749119	     -6.79953956	     19.60024079	     -0.37507044	     -6.28796478	     -6.92907908
      0.78333333	     -3.03850301	      5.33248673	     14.01385973	      0.19979846	      0.96874660	      0.23494941	     29.25519983	     -8.36577746	     -3.24568022	     -8.91695986	      7.76535606	    -14.60169646	      0.53290743	    -21.96861792	      4.12378852	     13.84244215	    -13.49458135	      1.29687299	     -6.38863997	     19.97340142	     -0.16942104	     -6.00865076	     -6.90164442
      0.78750000	     -3.07228309	      5.09831331	     13.93536128	      0.20680887	      0.96850271	      0.23532202	     29.37122665	     -8.03197441	     -3.18408137	     -9.65991685	      7.36336736	    -14.63277601	      0.63417925	    -21.78477743	      3.85201552	     13.35508570	    -14.27297109	      0.68608544	     -5.96544713	     20.43236589	      0.04180118	     -5.72208553	     -6.86268539
      0.79166667	     -3.10279824	      4.85768382	     13.84080072	      0.21381800	      0.96828905	      0.23571912	     29.50603122	     -7.68827690	     -3.12903904	    -10.44758458	      6.99015095	    -14.63352133	      0.75317726	    -21.57758529	      3.57693675	     12.83910840	    -15.09042628	      0.04710866	     -5.53079636	     20.98699522	      0.24879630	     -5.42700706	     -6.81435752
      0.79583333	     -3.09109505	      4.60918377	     13.71899502	      0.22084655	      0.96816967	      0.23614894	     29.59967713	     -7.31687541	     -3.04535471	    -11.23448343	      6.51930762	    -14.76342029	      2.24618374	    -21.41866446	      3.28865731	     12.32762298	    -15.86722763	     -0.74861027	     -5.27164459	     28.52838937	      0.41074489	     -5.10446578	     -6.84978412
      0.80000000	     -3.12058009	      4.38506008	     13.60960472	      0.22780289	      0.96801652	      0.23654686	     29.78151716	     -6.99898776	     -3.04367412	    -12.13806544	      6.33162746	    -14.56455426	      2.23172484	    -21.16327569	      3.04052901	     11.82900982	    -16.76804751	     -1.47620107	     -4.92169151	     28.58480828	      0.60667703	     -4.82575686	     -6.75058994
      0.80416667	     -3.14139998	      4.14603128	     13.47460108	      0.23476540	      0.96789451	      0.23699326	     29.96246122	     -6.65047826	     -3.00099653	    -13.05211668	      6.08719193	    -14.48393857	      2.21787093	    -20.89653389	      2.77763834	     11.29460289	    -17.69161291	     -2.21156372	     -4.51478119	     28.69340081	      0.79904466	     -4.52381226	     -6.69595068
      0.80833333	     -3.15175122	      3.90755750	     13.33413885	      0.24170200	      0.96782037	      0.23745983	     30.13412403	     -6.29972181	     -2.96336861	    -13.97570292	      5.87896643	    -14.39917265	      2.20406203	    -20.61235806	      2.51170969	     10.75412696	    -18.65795117	     -2.97392108	     -4.12948290	     28.84697086	      0.97599903	     -4.22188145	     -6.65046607
      0.81250000	     -3.16020586	      3.67542560	     13.18336431	      0.24860281	      0.96777457	      0.23794365	     30.30950826	     -5.95176524	     -2.91818788	    -14.91734658	      5.71880886	    -14.29434727	      2.19015532	    -20.30342430	      2.25454109	     10.21434028	    -19.66646178	     -3.76095114	     -3.76226678	     29.01829989	      1.14496154	     -3.92496418	     -6.60368432
